<?xml version="1.0" encoding="UTF-8"?>
<svg width="100px" height="100px" viewBox="0 0 100 100" version="1.1" xmlns="http://www.w3.org/2000/svg" xmlns:xlink="http://www.w3.org/1999/xlink">
    <title>nt_chancerain</title>
    <g id="Page-1" stroke="none" stroke-width="1" fill="none" fill-rule="evenodd">
        <g id="Weather-@2x" transform="translate(-169.000000, -551.000000)">
            <g id="Night-Time-icons" transform="translate(23.000000, 551.000000)">
                <g id="nt_chancerain" transform="translate(146.000000, 0.000000)">
                    <rect id="Rectangle-1" stroke="#2B2B2B" opacity="0.0229127799" x="0.5" y="0.5" width="99" height="99"></rect>
                    <g id="Imported-Layers" transform="translate(11.000000, 17.000000)" fill="#FFFFFF">
                        <path d="M59.9778182,13.5421778 C58.8640727,13.5421778 57.7517091,13.6620444 56.6642182,13.8976444 C53.1875636,5.79631111 45.0762909,0.391288889 36.2989818,0.391288889 C25.3466909,0.391288889 16.2391273,8.15644444 14.4248,18.9403111 L14.3488,18.9403111 C7.18683636,18.9403111 1.35970909,24.8055111 1.35970909,32.0140444 C1.35970909,39.2225778 7.18683636,45.0864 14.3488,45.0864 L59.9778182,45.0864 C68.6155636,45.0864 75.6434909,38.0101333 75.6434909,29.3136 C75.6434909,20.6170667 68.6155636,13.5421778 59.9778182,13.5421778 L59.9778182,13.5421778 Z M72.4929455,29.3136 C72.4929455,36.2686222 66.88,41.9257778 59.9778182,41.9257778 L14.3488,41.9257778 C8.92378182,41.9257778 4.51025455,37.4796889 4.51025455,32.0140444 C4.51025455,26.5470222 8.92378182,22.0995556 14.3488,22.0995556 C14.7108364,22.0995556 15.1060364,22.1284889 15.5924364,22.1877333 L17.1939636,22.3888889 L17.3542545,20.7796444 C18.3436364,10.9574667 26.4880727,3.55053333 36.2989818,3.55053333 C44.3259636,3.55053333 51.5293818,8.68 54.2253091,16.3156444 L54.7352,17.7568 L56.1874909,17.2924889 C57.4200727,16.9012 58.6954909,16.7028 59.9778182,16.7028 C66.88,16.7028 72.4929455,22.3599556 72.4929455,29.3136 L72.4929455,29.3136 Z" id="Fill-1"></path>
                        <path d="M14.5685091,53.7843111 C15.8950545,56.1995556 17.2216,58.6134222 18.5495273,61.0286667 C19.4725818,62.7095556 22.0510545,61.2091556 21.1266182,59.5268889 C19.8000727,57.1116444 18.4735273,54.6964 17.1456,52.2811556 C16.2225455,50.6002667 13.6440727,52.1006667 14.5685091,53.7843111" id="Fill-2"></path>
                        <path d="M29.3581091,53.7843111 C30.6846545,56.1995556 32.0112,58.6134222 33.3377455,61.0286667 C34.2621818,62.7095556 36.8406545,61.2091556 35.9162182,59.5268889 C34.5896727,57.1116444 33.2631273,54.6964 31.9352,52.2811556 C31.0121455,50.6002667 28.4322909,52.1006667 29.3581091,53.7843111" id="Fill-3"></path>
                        <path d="M44.9021818,53.7843111 C46.2301091,56.1995556 47.5566545,58.6134222 48.8832,61.0286667 C49.8062545,62.7095556 52.3861091,61.2091556 51.4616727,59.5268889 C50.1351273,57.1116444 48.8072,54.6964 47.4806545,52.2811556 C46.5576,50.6002667 43.9777455,52.1006667 44.9021818,53.7843111" id="Fill-4"></path>
                        <path d="M59.9253091,53.7843111 C61.2518545,56.1995556 62.5797818,58.6134222 63.9063273,61.0286667 C64.8293818,62.7095556 67.4092364,61.2091556 66.4848,59.5268889 C65.1568727,57.1116444 63.8303273,54.6964 62.5037818,52.2811556 C61.5793455,50.6002667 59.0008727,52.1006667 59.9253091,53.7843111" id="Fill-5"></path>
                    </g>
                </g>
            </g>
        </g>
    </g>
</svg>