<?xml version="1.0" encoding="UTF-8"?>
<svg width="100px" height="100px" viewBox="0 0 100 100" version="1.1" xmlns="http://www.w3.org/2000/svg" xmlns:xlink="http://www.w3.org/1999/xlink">
    <title>nt_partlysunny</title>
    <g id="Page-1" stroke="none" stroke-width="1" fill="none" fill-rule="evenodd">
        <g id="Weather-@2x" transform="translate(-23.000000, -687.000000)">
            <g id="Night-Time-icons" transform="translate(23.000000, 551.000000)">
                <g id="nt_partlysunny" transform="translate(0.000000, 136.000000)">
                    <g id="Fill-1-+-Rectangle-1-Copy-26" opacity="0.0229127799" stroke="#2B2B2B">
                        <rect id="Rectangle-1" x="0.5" y="0.5" width="98.2293578" height="99"></rect>
                    </g>
                    <g id="Imported-Layers" transform="translate(2.000000, 15.000000)" fill="#FFFFFF">
                        <path d="M26.1686452,58.1878653 C23.823871,58.2909002 21.4251613,58.1161888 18.9611613,57.5771219 C14.1978065,56.5363196 10.3527742,53.7409368 7.03006452,50.0929024 C6.5403871,49.5553288 6.07483871,48.993863 5.544,48.3786399 C16.9059355,49.6374581 26.3843871,46.0237687 33.1901935,36.3758154 C39.9562581,26.7875925 40.6957419,16.2287505 36.4192258,5.18310571 C36.4802581,5.19505179 36.5540645,5.19355853 36.6122581,5.22342374 C43.2094194,8.69973319 48.1203871,13.8111624 50.5290323,21.1998133 C51.304,20.9623849 52.1470968,20.7533285 53.000129,20.6278947 C52.9163871,20.3650809 52.8454194,20.1037604 52.756,19.8409466 C49.5227097,10.3841305 42.6885161,4.57236234 33.9381935,1.05722813 C33.352,0.8227863 32.7941935,0.915368425 32.3811613,1.44547575 C31.968129,1.9711033 31.9794839,2.54750168 32.3187097,3.12091355 C32.4166452,3.28517216 32.5117419,3.45092403 32.6054194,3.6166759 C35.6243871,8.92820198 37.1104516,14.6668004 36.3596129,20.830978 C35.0750968,31.3689144 29.8745806,39.1099746 20.7012903,43.6479919 C15.023871,46.4568141 9.0483871,46.5643289 3.01612903,44.9874462 C2.16167742,44.7634572 1.56412903,44.8993439 1.20645161,45.4727558 C0.845935484,46.0521407 0.885677419,46.6061401 1.47612903,47.3497837 C2.80890323,49.034181 4.08774194,50.7798021 5.54825806,52.3342858 C11.6713548,58.8508727 19.0590968,61.7821423 27.788129,60.8264558 C27.9329032,60.7995771 28.0790968,60.7771782 28.2252903,60.7517928 C27.4957419,60.0439875 26.7818065,59.2047754 26.1686452,58.1878653" id="Fill-1"></path>
                        <path d="M74.6750968,35.8083766 C73.788,35.8083766 72.9037419,35.908425 72.0393548,36.1070286 C69.275871,29.3082155 62.8263226,24.7746779 55.8473548,24.7746779 C47.1381935,24.7746779 39.8966452,31.2897716 38.4545806,40.3374344 L38.3935484,40.3374344 C32.6990968,40.3374344 28.0663226,45.2577263 28.0663226,51.3054296 C28.0663226,57.3531329 32.6990968,62.2719316 38.3935484,62.2719316 L74.6750968,62.2719316 C81.5433548,62.2719316 87.1299355,56.3362228 87.1299355,49.0401541 C87.1299355,41.7440853 81.5433548,35.8083766 74.6750968,35.8083766 L74.6750968,35.8083766 Z M84.6247742,49.0401541 C84.6247742,54.8743212 80.1623226,59.6213949 74.6750968,59.6213949 L38.3935484,59.6213949 C34.080129,59.6213949 30.5714839,55.8912313 30.5714839,51.3054296 C30.5714839,46.7181347 34.080129,42.987971 38.3935484,42.987971 C38.6816774,42.987971 38.9953548,43.0118632 39.3828387,43.0611407 L40.656,43.2298791 L40.7837419,41.879972 C41.5700645,33.6386697 48.0451613,27.4252145 55.8473548,27.4252145 C62.2287742,27.4252145 67.9572903,31.72879 70.1005161,38.1348758 L70.5064516,39.3429232 L71.6603871,38.9546755 C72.6397419,38.6246651 73.6545806,38.4589132 74.6750968,38.4589132 C80.1623226,38.4589132 84.6247742,43.2044937 84.6247742,49.0401541 L84.6247742,49.0401541 Z" id="Fill-2"></path>
                    </g>
                </g>
            </g>
        </g>
    </g>
</svg>